<mxfile host="app.diagrams.net" modified="2025-06-10T20:16:15Z" agent="ChatGPT" version="24.3.4"><diagram id="c10253ac-d415-4e22-a5bc-3c2fd6892ca3" name="ProdPhysical-AWS2025-v5"><mxGraphModel dx="1282" dy="841" grid="1" gridSize="10" guides="1" tooltips="1" connect="1" arrows="1" fold="1" page="1" pageScale="1" pageWidth="1600" pageHeight="900" math="0" shadow="0"><root><mxCell id="0" /><mxCell id="1" parent="0" /><mxCell id="2" parent="1" value="AI Loyalty Maximizer VPC&#10;10.0.0.0/16" style="shape=mxgraph.aws4.vpc;fillColor=none;strokeColor=#232F3E;fontSize=12;html=1;" vertex="1"><mxGeometry as="geometry" x="40" y="40" width="1300" height="860" /></mxCell><mxCell id="3" parent="2" value="AZ-A" style="shape=mxgraph.aws4.availability_zone;fillColor=none;strokeColor=#232F3E;fontSize=12;html=1;" vertex="1"><mxGeometry as="geometry" x="60.0" y="80" width="406.6666666666667" height="800" /></mxCell><mxCell id="4" parent="3" value="Public Subnet&#10;10.0.1.0/24" style="shape=mxgraph.aws4.public_subnet;fillColor=none;strokeColor=#232F3E;fontSize=12;html=1;" vertex="1"><mxGeometry as="geometry" x="70.0" y="100" width="386.6666666666667" height="160" /></mxCell><mxCell id="5" parent="4" style="shape=mxgraph.aws4.resourceIcon;resIcon=mxgraph.aws4.nat_gateway;gradientColor=none;fillColor=#5A30B5;strokeColor=#FFFFFF;verticalLabelPosition=bottom;verticalAlign=top;fontColor=#232F3E;html=1;" vertex="1"><mxGeometry as="geometry" x="243.33333333333337" y="160.0" width="40" height="40" /></mxCell><mxCell id="6" parent="3" value="Private App Subnet" style="shape=mxgraph.aws4.private_subnet;fillColor=none;strokeColor=#232F3E;fontSize=12;html=1;" vertex="1"><mxGeometry as="geometry" x="70.0" y="280" width="386.6666666666667" height="240" /></mxCell><mxCell id="7" parent="6" style="shape=mxgraph.aws4.resourceIcon;resIcon=mxgraph.aws4.lambda_function;gradientColor=none;fillColor=#5A30B5;strokeColor=#FFFFFF;verticalLabelPosition=bottom;verticalAlign=top;fontColor=#232F3E;html=1;" vertex="1"><mxGeometry as="geometry" x="243.33333333333337" y="300" width="40" height="40" /></mxCell><mxCell id="8" parent="6" style="shape=mxgraph.aws4.resourceIcon;resIcon=mxgraph.aws4.step_functions;gradientColor=none;fillColor=#5A30B5;strokeColor=#FFFFFF;verticalLabelPosition=bottom;verticalAlign=top;fontColor=#232F3E;html=1;" vertex="1"><mxGeometry as="geometry" x="243.33333333333337" y="380" width="40" height="40" /></mxCell><mxCell id="9" parent="6" style="shape=mxgraph.aws4.resourceIcon;resIcon=mxgraph.aws4.sns;gradientColor=none;fillColor=#5A30B5;strokeColor=#FFFFFF;verticalLabelPosition=bottom;verticalAlign=top;fontColor=#232F3E;html=1;" vertex="1"><mxGeometry as="geometry" x="243.33333333333337" y="460" width="40" height="40" /></mxCell><mxCell id="10" parent="3" value="Private Data Subnet" style="shape=mxgraph.aws4.private_subnet;fillColor=none;strokeColor=#232F3E;fontSize=12;html=1;" vertex="1"><mxGeometry as="geometry" x="70.0" y="540" width="386.6666666666667" height="260" /></mxCell><mxCell id="11" parent="10" style="shape=mxgraph.aws4.resourceIcon;resIcon=mxgraph.aws4.neptune;gradientColor=none;fillColor=#5A30B5;strokeColor=#FFFFFF;verticalLabelPosition=bottom;verticalAlign=top;fontColor=#232F3E;html=1;" vertex="1"><mxGeometry as="geometry" x="243.33333333333337" y="650.0" width="40" height="40" /></mxCell><mxCell id="12" parent="2" value="AZ-B" style="shape=mxgraph.aws4.availability_zone;fillColor=none;strokeColor=#232F3E;fontSize=12;html=1;" vertex="1"><mxGeometry as="geometry" x="486.6666666666667" y="80" width="406.6666666666667" height="800" /></mxCell><mxCell id="13" parent="12" value="Public Subnet&#10;10.0.2.0/24" style="shape=mxgraph.aws4.public_subnet;fillColor=none;strokeColor=#232F3E;fontSize=12;html=1;" vertex="1"><mxGeometry as="geometry" x="496.6666666666667" y="100" width="386.6666666666667" height="160" /></mxCell><mxCell id="14" parent="13" style="shape=mxgraph.aws4.resourceIcon;resIcon=mxgraph.aws4.nat_gateway;gradientColor=none;fillColor=#5A30B5;strokeColor=#FFFFFF;verticalLabelPosition=bottom;verticalAlign=top;fontColor=#232F3E;html=1;" vertex="1"><mxGeometry as="geometry" x="670.0" y="160.0" width="40" height="40" /></mxCell><mxCell id="15" parent="12" value="Private App Subnet" style="shape=mxgraph.aws4.private_subnet;fillColor=none;strokeColor=#232F3E;fontSize=12;html=1;" vertex="1"><mxGeometry as="geometry" x="496.6666666666667" y="280" width="386.6666666666667" height="240" /></mxCell><mxCell id="16" parent="15" style="shape=mxgraph.aws4.resourceIcon;resIcon=mxgraph.aws4.lambda_function;gradientColor=none;fillColor=#5A30B5;strokeColor=#FFFFFF;verticalLabelPosition=bottom;verticalAlign=top;fontColor=#232F3E;html=1;" vertex="1"><mxGeometry as="geometry" x="670.0" y="300" width="40" height="40" /></mxCell><mxCell id="17" parent="15" style="shape=mxgraph.aws4.resourceIcon;resIcon=mxgraph.aws4.step_functions;gradientColor=none;fillColor=#5A30B5;strokeColor=#FFFFFF;verticalLabelPosition=bottom;verticalAlign=top;fontColor=#232F3E;html=1;" vertex="1"><mxGeometry as="geometry" x="670.0" y="380" width="40" height="40" /></mxCell><mxCell id="18" parent="15" style="shape=mxgraph.aws4.resourceIcon;resIcon=mxgraph.aws4.sns;gradientColor=none;fillColor=#5A30B5;strokeColor=#FFFFFF;verticalLabelPosition=bottom;verticalAlign=top;fontColor=#232F3E;html=1;" vertex="1"><mxGeometry as="geometry" x="670.0" y="460" width="40" height="40" /></mxCell><mxCell id="19" parent="12" value="Private Data Subnet" style="shape=mxgraph.aws4.private_subnet;fillColor=none;strokeColor=#232F3E;fontSize=12;html=1;" vertex="1"><mxGeometry as="geometry" x="496.6666666666667" y="540" width="386.6666666666667" height="260" /></mxCell><mxCell id="20" parent="19" style="shape=mxgraph.aws4.resourceIcon;resIcon=mxgraph.aws4.neptune;gradientColor=none;fillColor=#5A30B5;strokeColor=#FFFFFF;verticalLabelPosition=bottom;verticalAlign=top;fontColor=#232F3E;html=1;" vertex="1"><mxGeometry as="geometry" x="670.0" y="650.0" width="40" height="40" /></mxCell><mxCell id="21" parent="2" value="AZ-C" style="shape=mxgraph.aws4.availability_zone;fillColor=none;strokeColor=#232F3E;fontSize=12;html=1;" vertex="1"><mxGeometry as="geometry" x="913.3333333333334" y="80" width="406.6666666666667" height="800" /></mxCell><mxCell id="22" parent="21" value="Public Subnet&#10;10.0.3.0/24" style="shape=mxgraph.aws4.public_subnet;fillColor=none;strokeColor=#232F3E;fontSize=12;html=1;" vertex="1"><mxGeometry as="geometry" x="923.3333333333334" y="100" width="386.6666666666667" height="160" /></mxCell><mxCell id="23" parent="22" style="shape=mxgraph.aws4.resourceIcon;resIcon=mxgraph.aws4.nat_gateway;gradientColor=none;fillColor=#5A30B5;strokeColor=#FFFFFF;verticalLabelPosition=bottom;verticalAlign=top;fontColor=#232F3E;html=1;" vertex="1"><mxGeometry as="geometry" x="1096.6666666666667" y="160.0" width="40" height="40" /></mxCell><mxCell id="24" parent="21" value="Private App Subnet" style="shape=mxgraph.aws4.private_subnet;fillColor=none;strokeColor=#232F3E;fontSize=12;html=1;" vertex="1"><mxGeometry as="geometry" x="923.3333333333334" y="280" width="386.6666666666667" height="240" /></mxCell><mxCell id="25" parent="24" style="shape=mxgraph.aws4.resourceIcon;resIcon=mxgraph.aws4.lambda_function;gradientColor=none;fillColor=#5A30B5;strokeColor=#FFFFFF;verticalLabelPosition=bottom;verticalAlign=top;fontColor=#232F3E;html=1;" vertex="1"><mxGeometry as="geometry" x="1096.6666666666667" y="300" width="40" height="40" /></mxCell><mxCell id="26" parent="24" style="shape=mxgraph.aws4.resourceIcon;resIcon=mxgraph.aws4.step_functions;gradientColor=none;fillColor=#5A30B5;strokeColor=#FFFFFF;verticalLabelPosition=bottom;verticalAlign=top;fontColor=#232F3E;html=1;" vertex="1"><mxGeometry as="geometry" x="1096.6666666666667" y="380" width="40" height="40" /></mxCell><mxCell id="27" parent="24" style="shape=mxgraph.aws4.resourceIcon;resIcon=mxgraph.aws4.sns;gradientColor=none;fillColor=#5A30B5;strokeColor=#FFFFFF;verticalLabelPosition=bottom;verticalAlign=top;fontColor=#232F3E;html=1;" vertex="1"><mxGeometry as="geometry" x="1096.6666666666667" y="460" width="40" height="40" /></mxCell><mxCell id="28" parent="21" value="Private Data Subnet" style="shape=mxgraph.aws4.private_subnet;fillColor=none;strokeColor=#232F3E;fontSize=12;html=1;" vertex="1"><mxGeometry as="geometry" x="923.3333333333334" y="540" width="386.6666666666667" height="260" /></mxCell><mxCell id="29" parent="1" style="shape=mxgraph.aws4.resourceIcon;resIcon=mxgraph.aws4.internet_gateway;gradientColor=none;fillColor=#5A30B5;strokeColor=#FFFFFF;verticalLabelPosition=bottom;verticalAlign=top;fontColor=#232F3E;html=1;" vertex="1"><mxGeometry as="geometry" x="660.0" y="-60" width="60" height="60" /></mxCell><mxCell id="30" parent="1" style="shape=mxgraph.aws4.resourceIcon;resIcon=mxgraph.aws4.api_gateway;gradientColor=none;fillColor=#5A30B5;strokeColor=#FFFFFF;verticalLabelPosition=bottom;verticalAlign=top;fontColor=#232F3E;html=1;" vertex="1"><mxGeometry as="geometry" x="-80" y="120" width="60" height="60" /></mxCell><mxCell id="31" parent="1" style="endArrow=block;endFill=1;strokeWidth=2;" edge="1" source="30" target="7"><mxGeometry as="geometry" relative="1" /></mxCell><mxCell id="32" parent="1" style="endArrow=block;endFill=1;strokeWidth=2;" edge="1" source="29" target="5"><mxGeometry as="geometry" relative="1" /></mxCell><mxCell id="33" parent="1" style="shape=mxgraph.aws4.resourceIcon;resIcon=mxgraph.aws4.bedrock;gradientColor=none;fillColor=#5A30B5;strokeColor=#FFFFFF;verticalLabelPosition=bottom;verticalAlign=top;fontColor=#232F3E;html=1;" vertex="1"><mxGeometry as="geometry" x="1440" y="100" width="60" height="60" /></mxCell><mxCell id="34" parent="1" style="shape=mxgraph.aws4.resourceIcon;resIcon=mxgraph.aws4.s3;gradientColor=none;fillColor=#5A30B5;strokeColor=#FFFFFF;verticalLabelPosition=bottom;verticalAlign=top;fontColor=#232F3E;html=1;" vertex="1"><mxGeometry as="geometry" x="1440" y="200" width="60" height="60" /></mxCell><mxCell id="35" parent="1" style="shape=mxgraph.aws4.resourceIcon;resIcon=mxgraph.aws4.textract;gradientColor=none;fillColor=#5A30B5;strokeColor=#FFFFFF;verticalLabelPosition=bottom;verticalAlign=top;fontColor=#232F3E;html=1;" vertex="1"><mxGeometry as="geometry" x="1440" y="300" width="60" height="60" /></mxCell><mxCell id="36" parent="1" style="shape=mxgraph.aws4.resourceIcon;resIcon=mxgraph.aws4.glue;gradientColor=none;fillColor=#5A30B5;strokeColor=#FFFFFF;verticalLabelPosition=bottom;verticalAlign=top;fontColor=#232F3E;html=1;" vertex="1"><mxGeometry as="geometry" x="1440" y="400" width="60" height="60" /></mxCell><mxCell id="37" parent="1" style="shape=mxgraph.aws4.resourceIcon;resIcon=mxgraph.aws4.dynamodb;gradientColor=none;fillColor=#5A30B5;strokeColor=#FFFFFF;verticalLabelPosition=bottom;verticalAlign=top;fontColor=#232F3E;html=1;" vertex="1"><mxGeometry as="geometry" x="1440" y="500" width="60" height="60" /></mxCell><mxCell id="38" parent="1" style="shape=mxgraph.aws4.resourceIcon;resIcon=mxgraph.aws4.cloudwatch;gradientColor=none;fillColor=#5A30B5;strokeColor=#FFFFFF;verticalLabelPosition=bottom;verticalAlign=top;fontColor=#232F3E;html=1;" vertex="1"><mxGeometry as="geometry" x="1440" y="600" width="60" height="60" /></mxCell></root></mxGraphModel></diagram></mxfile>